<svg width="161.002197" height="161.009766" viewBox="0 0 161.002 161.01" fill="none" xmlns="http://www.w3.org/2000/svg" xmlns:xlink="http://www.w3.org/1999/xlink">
	<desc>
			Created with Pixso.
	</desc>
	<defs/>
	<circle id="Background" cx="80.500000" cy="80.499512" r="72.106636" fill="#F1F1F1" fill-opacity="1.000000"/>
	<path id="Background" d="M132.23 18.84C118.23 7.08 100.18 0 80.5 0C62.21 0 43.83 6.17 28.76 18.84C14.75 30.58 4.64 47.13 1.24 66.52C-1.95 84.52 0.94 103.7 10.8 120.74C19.93 136.57 34.46 149.41 52.97 156.12C70.14 162.39 89.53 162.87 108.02 156.12C125.2 149.88 140.37 137.79 150.19 120.73C159.35 104.91 163.19 85.9 159.75 66.52C156.59 48.51 147.32 31.48 132.23 18.84ZM30.83 21.31C44.27 10.02 61.6 3.21 80.5 3.21C98.05 3.22 115.69 9.14 130.16 21.31C143.61 32.58 153.32 48.46 156.59 67.08C159.65 84.36 156.88 102.77 147.41 119.13C138.64 134.33 124.69 146.65 106.92 153.1C90.43 159.12 71.82 159.58 54.07 153.1C37.57 147.11 23.02 135.5 13.58 119.13C4.8 103.93 1.1 85.69 4.4 67.08C7.44 49.79 16.34 33.44 30.83 21.31Z" fill="#7EB693" fill-opacity="1.000000" fill-rule="evenodd"/>
</svg>
