<svg width="74.000000" height="74.000000" viewBox="0 0 74 74" fill="none" xmlns="http://www.w3.org/2000/svg" xmlns:xlink="http://www.w3.org/1999/xlink">
	<desc>
			Created with Pixso.
	</desc>
	<defs/>
	<rect id="Rectangle 229" rx="11.000000" width="74.000000" height="74.000000" fill="#F4F4F4" fill-opacity="1.000000"/>
	<path id="Vector" d="M57.56 51.04C55.8 49.27 51.55 46.69 49.49 45.65C46.8 44.3 46.58 44.18 44.47 45.75C43.06 46.8 42.12 47.74 40.47 47.38C38.82 47.03 35.24 45.05 32.1 41.92C28.97 38.8 26.87 35.11 26.52 33.47C26.16 31.82 27.11 30.9 28.15 29.49C29.61 27.5 29.5 27.16 28.25 24.48C27.28 22.39 24.62 18.17 22.85 16.43C20.95 14.55 20.95 14.88 19.72 15.39C18.73 15.81 17.77 16.32 16.87 16.91C15.1 18.09 14.11 19.07 13.43 20.53C12.74 22 12.43 25.44 15.98 31.88C19.53 38.32 22.01 41.62 27.16 46.75C32.31 51.89 36.27 54.65 42.06 57.9C49.22 61.91 51.97 61.12 53.44 60.44C54.91 59.75 55.89 58.78 57.07 57.01C57.67 56.11 58.18 55.15 58.6 54.16C59.11 52.94 59.44 52.94 57.56 51.04Z" fill="#F9EAB6" fill-opacity="1.000000" fill-rule="nonzero"/>
	<path id="Vector" d="M51.52 39.32C49.13 38.11 48.93 38.01 47.05 39.41C45.79 40.34 44.96 41.18 43.49 40.86C42.02 40.55 38.82 38.78 36.03 36C33.23 33.21 31.36 29.92 31.05 28.46C30.73 26.99 31.58 26.17 32.5 24.91C33.81 23.14 33.71 22.84 32.59 20.45C31.73 18.58 29.36 14.83 27.78 13.27C26.08 11.6 26.08 11.9 24.99 12.35C24.1 12.72 23.25 13.18 22.44 13.71C20.87 14.75 19.99 15.62 19.38 16.93C18.77 18.24 18.49 21.31 21.66 27.05C24.82 32.79 27.03 35.72 31.62 40.3C36.21 44.88 39.74 47.34 44.9 50.23C51.28 53.81 53.73 53.11 55.05 52.5C56.36 51.89 57.23 51.02 58.28 49.44C58.81 48.64 59.27 47.79 59.64 46.9C60.09 45.81 60.39 45.81 58.72 44.12C57.15 42.55 53.36 40.24 51.52 39.32Z" stroke="#7EB693" stroke-opacity="1.000000" stroke-width="3.000000"/>
</svg>
