<svg width="22.260498" height="20.542969" viewBox="0 0 22.2605 20.543" fill="none" xmlns="http://www.w3.org/2000/svg" xmlns:xlink="http://www.w3.org/1999/xlink">
	<desc>
			Created with Pixso.
	</desc>
	<defs/>
	<path id="Star 3" d="M10.18 0.67L8.21 6.45C8.07 6.86 7.69 7.13 7.26 7.13L1 7.13C0.02 7.13 -0.38 8.4 0.43 8.95L5.42 12.41C5.78 12.67 5.94 13.14 5.79 13.56L3.87 19.21C3.56 20.12 4.59 20.91 5.38 20.36L10.56 16.77C10.9 16.53 11.35 16.53 11.7 16.77L16.87 20.36C17.66 20.91 18.69 20.12 18.38 19.21L16.46 13.56C16.31 13.14 16.47 12.67 16.83 12.41L21.82 8.95C22.63 8.4 22.23 7.13 21.25 7.13L14.99 7.13C14.56 7.13 14.18 6.86 14.04 6.45L12.07 0.67C11.76 -0.23 10.49 -0.23 10.18 0.67Z" fill="#FFA858" fill-opacity="1.000000" fill-rule="evenodd"/>
</svg>
