<svg width="13.917969" height="12.969238" viewBox="0 0 13.918 12.9692" fill="none" xmlns="http://www.w3.org/2000/svg" xmlns:xlink="http://www.w3.org/1999/xlink">
	<desc>
			Created with Pixso.
	</desc>
	<defs/>
	<path id="Star 3" d="M6.01 0.67L5.02 3.56C4.89 3.97 4.51 4.24 4.08 4.24L1 4.24C0.02 4.24 -0.38 5.5 0.43 6.06L2.84 7.73C3.2 7.99 3.36 8.45 3.21 8.88L2.28 11.64C1.96 12.55 3 13.33 3.79 12.78L6.38 10.98C6.73 10.75 7.18 10.75 7.52 10.98L10.12 12.78C10.91 13.33 11.94 12.55 11.63 11.64L10.69 8.88C10.55 8.45 10.7 7.99 11.07 7.73L13.48 6.06C14.29 5.5 13.89 4.24 12.91 4.24L9.83 4.24C9.4 4.24 9.02 3.97 8.88 3.56L7.9 0.67C7.59 -0.23 6.31 -0.23 6.01 0.67Z" fill="#FFA858" fill-opacity="1.000000" fill-rule="evenodd"/>
</svg>
