<svg width="92" height="92" viewBox="0 0 92 92" fill="none" xmlns="http://www.w3.org/2000/svg">
<path d="M25.8367 12.9682C25.8377 12.4822 26.0309 12.0164 26.3742 11.6723C26.7175 11.3283 27.183 11.1341 27.669 11.1321H78.9973C79.4847 11.1321 79.9521 11.3254 80.2971 11.6696C80.642 12.0139 80.8363 12.4809 80.8373 12.9682V38.6324C80.8363 39.1197 80.642 39.5868 80.2971 39.931C79.9521 40.2753 79.4847 40.4686 78.9973 40.4686H27.6728C27.1862 40.4676 26.7197 40.2738 26.3756 39.9297C26.0315 39.5855 25.8377 39.1191 25.8367 38.6324V12.9682Z" fill="#78EB7B"/>
<path d="M27.6689 11.1321C27.1823 11.1331 26.7158 11.3269 26.3717 11.671C26.0276 12.0151 25.8338 12.4816 25.8328 12.9682V38.6324C25.8338 39.1191 26.0276 39.5855 26.3717 39.9297C26.7158 40.2738 27.1823 40.4676 27.6689 40.4686H38.4061L67.7388 11.1321H27.6689Z" fill="#C9F7CA"/>
<path d="M64.5035 11.1321L80.8488 23.9661M66.815 40.4686L80.8527 27.6346M25.8367 27.6346L39.8667 40.4686M25.8367 23.9661L42.1015 11.1321M25.8367 12.9682C25.8377 12.4822 26.0309 12.0164 26.3742 11.6723C26.7175 11.3283 27.183 11.1341 27.669 11.1321H78.9973C79.4847 11.1321 79.9521 11.3254 80.2971 11.6696C80.642 12.0139 80.8363 12.4809 80.8373 12.9682V38.6324C80.8363 39.1197 80.642 39.5868 80.2971 39.931C79.9521 40.2753 79.4847 40.4686 78.9973 40.4686H27.6728C27.1862 40.4676 26.7197 40.2738 26.3756 39.9297C26.0315 39.5855 25.8377 39.1191 25.8367 38.6324V12.9682Z" stroke="#191919" stroke-linecap="round" stroke-linejoin="round"/>
<path d="M53.3331 31.2993C54.792 31.2993 56.1912 30.7197 57.2228 29.6881C58.2544 28.6565 58.8339 27.2574 58.8339 25.7984C58.8339 24.3395 58.2544 22.9404 57.2228 21.9088C56.1912 20.8772 54.792 20.2976 53.3331 20.2976C51.8742 20.2976 50.475 20.8772 49.4434 21.9088C48.4118 22.9404 47.8323 24.3395 47.8323 25.7984C47.8323 27.2574 48.4118 28.6565 49.4434 29.6881C50.475 30.7197 51.8742 31.2993 53.3331 31.2993Z" fill="white" stroke="#191919" stroke-linecap="round" stroke-linejoin="round"/>
<path d="M77.1649 58.8649L60.9576 64.2507H60.9193C61.2555 63.6379 61.4106 62.9422 61.3665 62.2446C61.3225 61.5471 61.0811 60.8764 60.6706 60.3107C60.26 59.7451 59.6971 59.3077 59.0475 59.0497C58.3979 58.7917 57.6884 58.7236 57.0016 58.8534H45.9999C41.6559 54.3664 35.7426 51.7367 29.5013 51.5164H18.4996L3.83325 58.8534V80.8529L18.4996 71.6835C57.8373 84.8012 43.3281 84.9315 88.1666 62.5219C86.9283 60.8586 85.209 59.6159 83.2413 58.9618C81.2736 58.3077 79.1525 58.2739 77.1649 58.8649Z" fill="#FFDDA1"/>
<path d="M60.9576 64.2466L77.1649 58.8646C79.1536 58.2749 81.2756 58.3105 83.2434 58.9667C85.2112 59.6228 86.9298 60.8679 88.1666 62.5331C43.3281 84.9466 57.8373 84.8163 18.4996 71.6987L3.83325 80.868" stroke="#191919" stroke-linecap="round" stroke-linejoin="round"/>
<path d="M36.8344 66.1864H56.9978C57.5327 66.2799 58.0816 66.2552 58.606 66.114C59.1304 65.9729 59.6176 65.7187 60.0333 65.3693C60.449 65.0199 60.7833 64.5838 61.0126 64.0916C61.2419 63.5993 61.3608 63.0628 61.3608 62.5198C61.3608 61.9767 61.2419 61.4402 61.0126 60.948C60.7833 60.4557 60.449 60.0196 60.0333 59.6702C59.6176 59.3208 59.1304 59.0667 58.606 58.9255C58.0816 58.7844 57.5327 58.7597 56.9978 58.8532H45.9999C41.6553 54.3676 35.7421 51.7394 29.5013 51.52H18.4996L3.83325 58.8532" stroke="#191919" stroke-linecap="round" stroke-linejoin="round"/>
</svg>
