<svg width="109" height="109" viewBox="0 0 109 109" fill="none" xmlns="http://www.w3.org/2000/svg">
<path d="M15.6551 105.485L42.3601 90.9151H76.3499L103.055 76.3499L100.625 69.0651L76.3499 73.9247L44.7854 71.4949L54.5 59.355L52.0747 52.0702L27.795 66.6399L15.6551 81.205L3.51978 86.0646L15.6551 105.485ZM105.485 3.51978H18.0849V52.0702H105.485V3.51978Z" fill="black"/>
<path d="M105.485 20.5101V3.51978H88.4899L105.485 20.5101ZM88.4899 52.0747H105.48V35.0798L88.4899 52.0747ZM18.085 35.0798V52.0747H35.0799L18.085 35.0798ZM18.085 20.5101V3.51978H35.0799L18.085 20.5101Z" fill="#BBD8FF"/>
<path d="M18.085 20.5101L35.0799 3.51968M18.085 35.0797L35.0799 52.0746H18.085V3.51514H105.485V52.0655H66.6399M105.485 20.5101L88.4899 3.51968M105.485 35.0797L88.4899 52.0746" stroke="#CCFF00" stroke-linecap="round" stroke-linejoin="round"/>
<path d="M66.6399 18.0847H56.9298L54.5 22.9352L56.9298 27.7902H66.6399L69.0651 32.6498L66.6399 37.5003H56.9298M61.7848 18.0847V13.2251M61.7848 42.3599V37.5049M15.6551 105.485L42.3601 90.9148H76.35L103.055 76.3497L100.625 69.0649L76.35 73.9245L44.7854 71.4947L54.5 59.3548L52.0747 52.07L27.795 66.6396L15.6551 81.2048L3.51978 86.0644" stroke="#CCFF00" stroke-linecap="round" stroke-linejoin="round"/>
</svg>
