<svg width="23.925781" height="19.140625" viewBox="0 0 23.9258 19.1406" fill="none" xmlns="http://www.w3.org/2000/svg" xmlns:xlink="http://www.w3.org/1999/xlink">
	<desc>
			Created with Pixso.
	</desc>
	<defs/>
	<path id="Vector" d="M23.92 2.26C23.02 2.65 22.07 2.91 21.1 3.03C22.12 2.43 22.89 1.48 23.26 0.35C22.3 0.92 21.24 1.31 20.14 1.53C19.68 1.04 19.12 0.65 18.51 0.39C17.89 0.13 17.23 -0.01 16.56 0C13.85 0 11.65 2.16 11.65 4.83C11.65 5.2 11.69 5.57 11.78 5.93C9.83 5.84 7.93 5.34 6.19 4.47C4.44 3.6 2.9 2.38 1.66 0.88C1.22 1.61 0.99 2.45 0.99 3.3C0.99 4.98 1.87 6.46 3.18 7.33C2.4 7.31 1.64 7.1 0.95 6.72L0.95 6.78C0.95 9.13 2.65 11.08 4.89 11.52C4.47 11.63 4.03 11.69 3.6 11.69C3.29 11.69 2.98 11.66 2.68 11.6C3.3 13.52 5.11 14.91 7.26 14.95C5.52 16.3 3.37 17.03 1.17 17.02C0.77 17.02 0.38 17 0 16.95C2.24 18.38 4.85 19.14 7.51 19.14C16.55 19.14 21.49 11.77 21.49 5.39C21.49 5.18 21.48 4.97 21.47 4.77C22.43 4.08 23.26 3.24 23.92 2.26Z" fill="#274C5B" fill-opacity="1.000000" fill-rule="nonzero"/>
</svg>
