<svg width="16.000000" height="17.000000" viewBox="0 0 16 17" fill="none" xmlns="http://www.w3.org/2000/svg" xmlns:xlink="http://www.w3.org/1999/xlink">
	<desc>
			Created with Pixso.
	</desc>
	<defs/>
	<path id="Vector" d="M10.94 1.23C10.19 0.43 9.15 0 8 0C6.84 0 5.79 0.43 5.04 1.22C4.29 2.02 3.92 3.11 4.01 4.29C4.18 6.61 5.97 8.5 8 8.5C10.02 8.5 11.81 6.61 11.98 4.29C12.07 3.12 11.7 2.04 10.94 1.23ZM14.76 17L1.23 17C1.05 17 0.87 16.96 0.71 16.89C0.55 16.81 0.41 16.71 0.3 16.57C0.05 16.28 -0.06 15.87 0.02 15.47C0.34 13.69 1.36 12.2 2.95 11.15C4.36 10.22 6.16 9.71 8 9.71C9.83 9.71 11.63 10.22 13.04 11.15C14.63 12.2 15.65 13.69 15.97 15.47C16.05 15.87 15.94 16.28 15.69 16.57C15.58 16.71 15.44 16.81 15.28 16.89C15.12 16.96 14.94 17 14.76 17Z" fill="#EFD372" fill-opacity="1.000000" fill-rule="nonzero"/>
</svg>
