<svg width="22.330566" height="21.374512" viewBox="0 0 22.3306 21.3745" fill="none" xmlns="http://www.w3.org/2000/svg" xmlns:xlink="http://www.w3.org/1999/xlink">
	<desc>
			Created with Pixso.
	</desc>
	<defs/>
	<path id="Vector" d="M22.33 10.75C22.33 4.81 17.33 0 11.16 0C4.99 0 0 4.81 0 10.75C0 16.11 4.08 20.56 9.42 21.37L9.42 13.86L6.58 13.86L6.58 10.75L9.42 10.75L9.42 8.38C9.42 5.68 11.08 4.19 13.63 4.19C14.85 4.19 16.13 4.4 16.13 4.4L16.13 7.05L14.72 7.05C13.34 7.05 12.9 7.88 12.9 8.73L12.9 10.75L16 10.75L15.51 13.86L12.9 13.86L12.9 21.37C18.24 20.56 22.33 16.11 22.33 10.75Z" fill="#274C5B" fill-opacity="1.000000" fill-rule="evenodd"/>
</svg>
