<svg width="22.330566" height="21.503906" viewBox="0 0 22.3306 21.5039" fill="none" xmlns="http://www.w3.org/2000/svg" xmlns:xlink="http://www.w3.org/1999/xlink">
	<desc>
			Created with Pixso.
	</desc>
	<defs/>
	<path id="Vector" d="M15.81 1.79C17.05 1.79 18.23 2.26 19.1 3.1C19.97 3.94 20.46 5.08 20.46 6.27L20.46 15.23C20.46 16.41 19.97 17.55 19.1 18.39C18.23 19.23 17.05 19.7 15.81 19.71L6.51 19.71C5.28 19.7 4.09 19.23 3.22 18.39C2.35 17.55 1.86 16.41 1.86 15.23L1.86 6.27C1.86 5.08 2.35 3.94 3.22 3.1C4.09 2.26 5.28 1.79 6.51 1.79L15.81 1.79ZM15.81 0L6.51 0C2.93 0 0 2.82 0 6.27L0 15.23C0 18.68 2.93 21.5 6.51 21.5L15.81 21.5C19.39 21.5 22.33 18.68 22.33 15.23L22.33 6.27C22.33 2.82 19.39 0 15.81 0Z" fill="#274C5B" fill-opacity="1.000000" fill-rule="nonzero"/>
	<path id="Vector" d="M17.21 6.27C16.93 6.27 16.66 6.19 16.43 6.04C16.2 5.89 16.02 5.68 15.92 5.44C15.81 5.19 15.79 4.92 15.84 4.66C15.89 4.4 16.03 4.16 16.22 3.97C16.42 3.79 16.67 3.66 16.94 3.61C17.21 3.55 17.49 3.58 17.74 3.68C18 3.78 18.22 3.96 18.37 4.18C18.52 4.4 18.6 4.66 18.6 4.92C18.6 5.1 18.57 5.28 18.5 5.44C18.43 5.6 18.33 5.75 18.2 5.88C18.07 6 17.91 6.1 17.74 6.17C17.57 6.23 17.39 6.27 17.21 6.27ZM11.16 7.16C11.9 7.16 12.62 7.37 13.23 7.77C13.84 8.16 14.32 8.72 14.6 9.38C14.88 10.03 14.95 10.75 14.81 11.45C14.67 12.14 14.31 12.78 13.79 13.28C13.27 13.78 12.61 14.12 11.89 14.26C11.16 14.4 10.42 14.33 9.74 14.06C9.06 13.79 8.47 13.33 8.07 12.74C7.66 12.15 7.44 11.46 7.44 10.75C7.44 9.8 7.83 8.89 8.53 8.21C9.23 7.54 10.17 7.16 11.16 7.16ZM11.16 5.37C10.06 5.37 8.98 5.69 8.06 6.28C7.14 6.87 6.43 7.71 6 8.69C5.58 9.67 5.47 10.75 5.69 11.8C5.9 12.84 6.43 13.8 7.21 14.55C7.99 15.3 8.99 15.81 10.07 16.02C11.15 16.23 12.28 16.12 13.3 15.71C14.32 15.31 15.19 14.62 15.8 13.73C16.42 12.85 16.74 11.81 16.74 10.75C16.74 9.32 16.16 7.95 15.11 6.95C14.06 5.94 12.64 5.37 11.16 5.37Z" fill="#274C5B" fill-opacity="1.000000" fill-rule="nonzero"/>
</svg>
