<svg width="44.000000" height="44.000000" viewBox="0 0 44 44" fill="none" xmlns="http://www.w3.org/2000/svg" xmlns:xlink="http://www.w3.org/1999/xlink">
	<desc>
			Created with Pixso.
	</desc>
	<defs/>
	<circle id="Ellipse 59" cx="22.000000" cy="22.000000" r="22.000000" fill="#7EB693" fill-opacity="1.000000"/>
	<rect id="фрейм 1" width="36.000000" height="36.000000" transform="translate(4.000000 4.000000)" fill="#FFFFFF" fill-opacity="0"/>
	<path id="Vector" d="M28.34 27.14L25.37 23.99C26.09 22.98 26.47 21.75 26.47 20.49C26.47 17.26 24 14.63 20.96 14.63C17.92 14.63 15.45 17.26 15.45 20.49C15.45 23.72 17.92 26.34 20.96 26.34C22.15 26.34 23.31 25.93 24.26 25.17L27.23 28.33C27.38 28.47 27.57 28.55 27.77 28.54C27.98 28.53 28.17 28.45 28.31 28.3C28.45 28.14 28.53 27.94 28.54 27.73C28.55 27.51 28.47 27.3 28.34 27.14ZM17.02 20.49C17.02 19.66 17.26 18.85 17.69 18.16C18.12 17.48 18.73 16.94 19.45 16.62C20.17 16.31 20.96 16.22 21.73 16.38C22.49 16.55 23.19 16.94 23.74 17.53C24.29 18.11 24.67 18.86 24.82 19.67C24.97 20.48 24.89 21.32 24.6 22.09C24.3 22.85 23.79 23.5 23.15 23.96C22.5 24.42 21.74 24.67 20.96 24.67C19.92 24.67 18.92 24.23 18.18 23.44C17.44 22.66 17.03 21.6 17.02 20.49Z" fill="#FAFAFA" fill-opacity="1.000000" fill-rule="nonzero"/>
</svg>
