<svg width="129.042969" height="37.857910" viewBox="0 0 129.043 37.8579" fill="none" xmlns="http://www.w3.org/2000/svg" xmlns:xlink="http://www.w3.org/1999/xlink">
	<desc>
			Created with Pixso.
	</desc>
	<defs/>
	<path id="Organick" d="M120.67 23.13L121.89 21.91L125.15 27L129.04 27L124.06 19.6L128.64 14.32L124.57 14.32L121.33 18.12L120.67 18.97L120.67 9L117.28 9L117.28 27L120.67 27L120.67 23.13ZM98.58 10.2Q98.38 10.56 98.38 11.03Q98.38 11.51 98.58 11.88Q98.7 12.11 98.9 12.3Q99 12.39 99.12 12.47Q99.59 12.79 100.28 12.79Q100.97 12.79 101.44 12.47Q101.56 12.39 101.66 12.3Q101.86 12.11 101.98 11.88Q102.18 11.51 102.18 11.03Q102.18 10.57 101.99 10.21Q101.87 9.97 101.66 9.78Q101.58 9.7 101.48 9.63Q101 9.29 100.28 9.29Q99.53 9.29 99.04 9.65Q98.96 9.71 98.89 9.78Q98.7 9.97 98.58 10.2ZM46.64 23.27Q47.53 21.37 47.53 18.85L47.53 18.09Q47.53 15.58 46.63 13.66Q45.94 12.22 44.82 11.28Q44.46 10.97 44.06 10.72Q43.72 10.51 43.35 10.34Q41.96 9.7 40.27 9.7Q38.58 9.7 37.18 10.34Q36.82 10.51 36.48 10.72Q36.07 10.97 35.71 11.28Q34.6 12.22 33.91 13.66Q33 15.58 33 18.1L33 18.94Q33.01 21.41 33.93 23.3Q34.6 24.68 35.66 25.6Q36.06 25.93 36.51 26.21Q36.88 26.44 37.27 26.61Q38.64 27.23 40.29 27.23Q42.01 27.23 43.42 26.57Q43.77 26.4 44.09 26.2Q44.56 25.91 44.97 25.55Q46 24.63 46.64 23.27ZM43.01 14Q43.97 15.39 43.97 18.08L43.97 18.91Q43.96 21.57 43.01 22.96Q42.59 23.57 42.01 23.91Q41.28 24.35 40.29 24.35Q39.31 24.35 38.57 23.92Q37.96 23.56 37.53 22.91Q36.57 21.46 36.57 18.85L36.57 18.02Q36.58 15.36 37.54 13.98Q37.96 13.38 38.54 13.04Q39.28 12.6 40.27 12.6Q41.26 12.6 42 13.04Q42.59 13.38 43.01 14ZM55.77 17.4Q56.3 17.4 56.99 17.49L57.04 14.23Q56.55 14.08 55.98 14.08Q55.29 14.08 54.71 14.34Q53.78 14.76 53.16 15.83L53.07 14.32L49.87 14.32L49.87 27L53.25 27L53.25 18.7Q53.41 18.36 53.66 18.11Q54.35 17.4 55.77 17.4ZM59.29 15.86Q57.91 17.64 57.91 20.56L57.91 20.7Q57.91 23.66 59.32 25.44Q60.02 26.33 60.93 26.77Q61.86 27.23 63.01 27.23Q64.19 27.23 65.08 26.73Q65.64 26.42 66.1 25.91L66.1 26.58Q66.1 27.73 65.54 28.42Q65.45 28.53 65.35 28.63Q65.29 28.69 65.22 28.74Q64.49 29.35 63.25 29.35Q62.49 29.35 61.82 29.1Q60.91 28.75 60.18 27.93L58.68 30Q59.36 30.87 60.68 31.43Q61.59 31.81 62.54 31.93Q62.97 31.99 63.4 31.99Q65.24 31.99 66.61 31.34Q67.5 30.93 68.13 30.27Q68.47 29.9 68.74 29.47Q68.78 29.41 68.81 29.34Q69.5 28.15 69.5 26.57L69.5 14.32L66.42 14.32L66.28 15.51Q65.9 15.03 65.4 14.71Q64.43 14.08 63.04 14.08Q61.73 14.08 60.72 14.63Q59.91 15.07 59.29 15.86ZM79.1 25.86Q79.21 26.54 79.44 27L82.87 27L82.87 26.8Q82.37 25.87 82.36 24.07L82.36 18.57Q82.36 17.02 81.64 15.98Q81.36 15.58 80.99 15.26Q80.95 15.23 80.92 15.2Q79.55 14.08 77.26 14.08Q75.72 14.08 74.48 14.61Q73.23 15.15 72.55 16.08Q72.13 16.68 71.97 17.33Q71.87 17.72 71.87 18.12L75.26 18.12Q75.26 17.65 75.47 17.31Q75.58 17.14 75.75 17Q76.23 16.59 77.09 16.59Q77.99 16.59 78.44 17.04Q78.48 17.08 78.51 17.12Q78.54 17.15 78.56 17.18Q78.96 17.69 78.96 18.52L78.96 19.25L77.41 19.25Q74.58 19.26 73.09 20.34Q72.5 20.76 72.14 21.33Q71.59 22.21 71.59 23.43Q71.59 24.27 71.91 24.95Q72.22 25.62 72.82 26.15Q73.11 26.41 73.45 26.61Q74.49 27.23 75.91 27.23Q77.09 27.23 78 26.74Q78.61 26.41 79.1 25.86ZM88.19 15.78L88.08 14.32L84.89 14.32L84.89 27L88.28 27L88.28 18.05Q88.63 17.46 89.15 17.15Q89.69 16.83 90.42 16.83Q91.51 16.83 91.98 17.32Q92.45 17.81 92.45 18.89L92.45 27L95.84 27L95.84 18.8Q95.82 16.45 94.83 15.26Q94.68 15.08 94.5 14.92Q93.53 14.08 91.83 14.08Q90.54 14.08 89.54 14.62Q88.78 15.04 88.19 15.78ZM111.38 24.13Q110.84 24.5 110.04 24.5Q109.22 24.5 108.68 24.11Q108.42 23.92 108.23 23.64Q107.63 22.79 107.63 20.83L107.63 20.48Q107.63 18.55 108.23 17.68Q108.45 17.37 108.75 17.17Q109.27 16.82 110.02 16.82Q110.69 16.82 111.17 17.12Q111.39 17.25 111.57 17.44Q111.7 17.58 111.8 17.74Q112.16 18.28 112.18 19.04L115.35 19.04Q115.33 17.44 114.61 16.3Q114.31 15.83 113.89 15.43Q113.64 15.2 113.36 15Q112.04 14.08 110.08 14.08Q108.13 14.08 106.77 14.98Q106.24 15.33 105.8 15.83Q105.65 15.99 105.52 16.17Q104.24 17.85 104.24 20.5L104.24 20.73Q104.24 23.64 105.68 25.34Q105.74 25.42 105.81 25.5Q106.24 25.98 106.76 26.32Q108.13 27.23 110.1 27.23Q111.39 27.23 112.48 26.77Q112.62 26.71 112.76 26.64Q113.56 26.24 114.13 25.63Q114.42 25.33 114.65 24.97Q114.97 24.47 115.15 23.93Q115.34 23.3 115.35 22.61L112.18 22.61Q112.16 23.16 111.91 23.57Q111.78 23.8 111.57 23.98Q111.48 24.06 111.38 24.13ZM98.58 27L101.98 27L101.98 14.32L98.58 14.32L98.58 27ZM61.98 23.51Q61.29 22.53 61.29 20.81Q61.29 18.83 61.99 17.83Q62.34 17.34 62.81 17.09Q63.29 16.83 63.91 16.83Q64.84 16.83 65.45 17.28Q65.84 17.55 66.1 18L66.1 23.33Q65.86 23.74 65.51 24.01Q64.87 24.49 63.88 24.49Q63.27 24.49 62.79 24.23Q62.32 23.99 61.98 23.51ZM77.64 24.48Q77.17 24.64 76.64 24.64Q75.93 24.64 75.5 24.29Q75.46 24.26 75.42 24.23Q75.23 24.05 75.12 23.83Q74.98 23.55 74.98 23.19L74.99 22.99Q75.04 22.44 75.32 22.07Q75.94 21.23 77.7 21.23L78.96 21.23L78.96 23.41Q78.91 23.51 78.84 23.6Q78.55 24.03 78.03 24.31Q77.84 24.41 77.64 24.48Z" fill="#274C5B" fill-opacity="1.000000" fill-rule="evenodd"/>
	<path id="Vector" d="M1.56 28.32L13.21 28.32L24.85 28.32" stroke="#7EB693" stroke-opacity="1.000000" stroke-width="2.000000"/>
	<path id="Vector" d="M4.19 32.61L13.21 32.61L22.22 32.61" stroke="#7EB693" stroke-opacity="1.000000" stroke-width="2.000000"/>
	<path id="Vector" d="M12.87 1.23L12.87 5.91L12.87 10.58" stroke="#7EB693" stroke-opacity="1.000000" stroke-width="2.000000"/>
	<path id="Vector" d="M12.92 10.1L12.92 27.75" stroke="#7EB693" stroke-opacity="1.000000" stroke-width="2.000000"/>
	<path id="Vector" d="M20.3 3.27L12.92 10.67" stroke="#7EB693" stroke-opacity="1.000000" stroke-width="2.000000"/>
	<path id="Vector" d="M23.14 6.12L12.92 16.36" stroke="#7EB693" stroke-opacity="1.000000" stroke-width="2.000000"/>
	<path id="Vector" d="M24.85 10.67L12.92 22.05" stroke="#7EB693" stroke-opacity="1.000000" stroke-width="2.000000"/>
	<path id="Vector" d="M25.42 15.79L12.92 28.32" stroke="#7EB693" stroke-opacity="1.000000" stroke-width="2.000000"/>
	<path id="Vector" d="M25.42 21.49L18.6 28.32" stroke="#7EB693" stroke-opacity="1.000000" stroke-width="2.000000"/>
	<path id="Vector" d="M1 21.49L7.81 28.32" stroke="#7EB693" stroke-opacity="1.000000" stroke-width="2.000000"/>
	<path id="Vector" d="M6.11 3.27L12.92 10.67" stroke="#7EB693" stroke-opacity="1.000000" stroke-width="2.000000"/>
	<path id="Vector" d="M3.27 6.12L12.92 16.36" stroke="#7EB693" stroke-opacity="1.000000" stroke-width="2.000000"/>
	<path id="Vector" d="M1.56 10.1L12.92 22.05" stroke="#7EB693" stroke-opacity="1.000000" stroke-width="2.000000"/>
	<path id="Vector" d="M1 15.22L12.92 27.75" stroke="#7EB693" stroke-opacity="1.000000" stroke-width="2.000000"/>
	<path id="Vector" d="M1 24.25L1 13.6C1 6.64 6.46 1 13.21 1C19.95 1 25.42 6.64 25.42 13.6L25.42 24.25C25.42 31.21 19.95 36.85 13.21 36.85C6.46 36.85 1 31.21 1 24.25Z" stroke="#7EB693" stroke-opacity="1.000000" stroke-width="2.000000"/>
</svg>
